<?xml version="1.0" standalone="no"?>
<!DOCTYPE svg PUBLIC "-//W3C//DTD SVG 20010904//EN"
 "http://www.w3.org/TR/2001/REC-SVG-20010904/DTD/svg10.dtd">
<svg version="1.0" xmlns="http://www.w3.org/2000/svg"
 width="1868.000000pt" height="2560.000000pt" viewBox="0 0 1868.000000 2560.000000"
 preserveAspectRatio="xMidYMid meet">

<g transform="translate(0.000000,2560.000000) scale(0.100000,-0.100000)"
fill="#000000" stroke="none">
<path d="M0 12800 l0 -12800 9340 0 9340 0 0 12800 0 12800 -9340 0 -9340 0 0
-12800z m8094 8446 c152 -1 170 -3 180 -19 9 -15 6 -22 -15 -41 -40 -35 -115
-53 -374 -91 -226 -32 -244 -37 -315 -73 -53 -27 -85 -52 -109 -83 -18 -24
-40 -45 -47 -47 -8 -2 -14 -12 -14 -22 0 -11 -22 -61 -49 -113 -62 -118 -81
-190 -87 -335 l-4 -116 37 -39 c21 -22 56 -50 77 -64 35 -23 47 -25 111 -21
47 3 89 13 120 28 63 31 125 90 125 121 0 13 11 47 25 74 44 91 31 141 -54
199 -40 28 -53 60 -28 68 6 3 79 0 161 -6 130 -8 161 -7 255 9 124 22 117 21
201 3 53 -11 66 -18 68 -35 3 -18 -3 -23 -35 -28 -152 -24 -214 -84 -283 -274
-18 -47 -36 -115 -41 -151 -5 -36 -19 -119 -31 -184 -18 -94 -26 -120 -40
-124 -12 -3 -18 -14 -18 -31 0 -46 -33 -71 -94 -71 -20 0 -65 -15 -103 -34
-106 -53 -139 -62 -158 -46 -18 15 -13 38 23 94 13 22 33 68 43 104 10 35 27
80 39 99 11 20 19 37 18 39 -2 1 -35 -6 -73 -17 -39 -12 -116 -23 -175 -26
-103 -5 -106 -5 -197 32 -213 85 -243 123 -302 382 -38 168 -26 269 52 435 47
99 65 123 120 157 26 16 34 26 30 42 -12 44 125 142 257 184 62 20 323 35 455
27 44 -3 156 -6 249 -6z m3679 -336 c151 -47 179 -60 207 -99 38 -55 44 -85
25 -143 -50 -152 -131 -187 -253 -108 -71 45 -83 72 -61 134 18 50 33 55 49
16 14 -35 76 -93 93 -87 16 5 42 80 34 100 -3 9 -38 32 -77 52 -65 33 -77 36
-128 30 -86 -10 -105 -20 -140 -80 l-33 -54 20 -38 c27 -54 56 -78 131 -107
36 -15 88 -44 117 -66 29 -21 65 -46 82 -54 55 -29 73 -64 69 -131 -10 -160
-119 -245 -342 -265 l-117 -11 -62 29 c-34 16 -94 52 -134 80 -57 41 -76 62
-98 106 -24 49 -26 59 -15 90 25 77 55 71 136 -28 39 -49 62 -66 129 -97 79
-37 84 -38 141 -29 82 13 113 28 120 57 13 51 -54 98 -273 194 -64 28 -62 26
-150 192 -33 62 18 188 96 240 81 53 233 115 286 117 11 0 78 -18 148 -40z
m-1768 -11 c22 -26 23 -36 24 -215 1 -159 -1 -189 -14 -205 -15 -16 -15 -20
-1 -48 13 -24 16 -68 17 -213 1 -190 -3 -231 -29 -260 -21 -24 -44 -22 -69 5
-34 36 -93 164 -104 225 -6 31 -19 73 -30 93 -16 32 -24 38 -64 43 -52 8 -222
-1 -278 -15 -32 -9 -41 -18 -68 -72 -45 -89 -117 -195 -145 -214 -24 -15 -27
-14 -80 22 -57 40 -79 67 -71 90 4 9 -8 7 -44 -6 -27 -11 -71 -19 -97 -19 -26
0 -81 -9 -121 -21 -141 -39 -207 -50 -346 -58 -77 -5 -173 -12 -212 -16 -87
-9 -90 -3 -32 63 42 48 89 149 89 191 0 13 18 81 39 150 21 70 42 154 46 186
4 33 13 82 22 108 19 61 12 99 -27 144 -57 65 -54 66 168 58 108 -4 208 -12
222 -17 14 -5 84 -9 155 -8 72 1 163 2 203 1 69 -1 72 -2 72 -25 0 -41 -84
-63 -286 -75 -117 -7 -138 -11 -177 -35 -54 -31 -82 -68 -108 -141 -31 -89
-25 -97 51 -75 70 21 190 20 270 -2 41 -11 79 -24 85 -29 18 -17 -19 -38 -89
-49 -38 -6 -94 -20 -125 -31 -31 -11 -91 -24 -135 -28 -96 -11 -112 -24 -128
-109 -11 -59 -10 -64 10 -85 21 -20 31 -22 115 -19 50 2 120 7 155 13 73 11
219 1 235 -16 9 -10 26 9 73 79 34 50 76 104 93 120 17 17 31 37 31 45 0 9 20
45 45 80 25 36 45 70 45 76 0 19 91 153 153 227 72 85 116 112 165 105 20 -3
55 -2 77 2 22 5 75 8 118 7 73 0 81 -2 102 -27z m864 1 c114 -19 172 -66 212
-171 24 -64 24 -83 -5 -145 -28 -60 -74 -101 -178 -155 -43 -22 -78 -41 -78
-43 0 -1 22 -25 49 -53 47 -48 131 -199 131 -234 0 -26 60 -118 94 -144 82
-62 209 -81 332 -48 79 21 98 11 60 -34 -35 -42 -91 -62 -213 -78 -95 -13
-108 -12 -188 7 -76 18 -95 27 -158 77 -40 32 -91 79 -115 105 -42 46 -92 136
-92 167 0 30 -43 144 -62 164 -16 17 -30 20 -99 17 -120 -4 -114 3 -160 -170
-25 -98 -58 -145 -94 -136 -13 3 -47 -2 -75 -11 -71 -24 -84 -16 -77 43 3 26
17 75 31 109 14 35 26 78 26 97 0 19 4 46 10 61 5 14 19 67 30 118 28 133 49
208 64 237 12 23 13 72 4 170 -5 55 14 60 267 60 121 0 249 -5 284 -10z
m-4427 -1172 c42 -29 76 -57 75 -61 -1 -5 -112 -53 -246 -107 -712 -290 -1304
-622 -1881 -1056 -703 -529 -1325 -1178 -1816 -1894 -823 -1199 -1307 -2603
-1395 -4045 -15 -244 -15 -777 0 -1015 53 -849 240 -1682 551 -2460 413 -1034
1010 -1940 1795 -2725 690 -691 1502 -1258 2347 -1639 508 -229 945 -382 1433
-502 434 -106 650 -144 1155 -201 239 -27 258 -28 810 -28 554 0 570 1 810 28
497 57 732 97 1135 197 383 94 670 186 1070 342 264 103 637 279 895 423 632
351 1128 713 1657 1207 471 441 918 978 1269 1525 733 1144 1177 2494 1253
3813 14 235 14 807 1 1055 -28 513 -125 1089 -272 1620 -430 1559 -1323 2951
-2568 4006 -481 407 -971 734 -1535 1025 -186 96 -495 239 -584 271 -28 10
-51 20 -51 23 0 13 168 110 190 110 17 0 325 -142 490 -226 801 -405 1485
-905 2132 -1556 594 -598 1060 -1230 1442 -1955 516 -980 834 -2060 921 -3123
40 -493 40 -964 -1 -1450 -41 -493 -146 -1062 -285 -1545 -341 -1176 -931
-2250 -1748 -3180 -143 -162 -565 -583 -731 -729 -943 -827 -1998 -1402 -3218
-1756 -536 -155 -1225 -270 -1812 -301 -242 -13 -902 -6 -1095 11 -1013 91
-1850 302 -2735 690 -1416 621 -2662 1671 -3539 2984 -693 1035 -1155 2275
-1311 3515 -70 550 -80 1322 -25 1866 26 248 35 316 76 555 97 570 240 1086
449 1620 520 1331 1367 2487 2495 3405 649 528 1385 957 2179 1271 61 24 118
44 126 44 8 0 49 -24 92 -52z m1136 -284 c123 -5 176 -3 186 5 11 9 20 6 42
-13 l29 -24 -20 -23 c-37 -41 -98 -58 -316 -89 -268 -38 -299 -45 -379 -86
-77 -39 -88 -48 -119 -91 -12 -18 -29 -33 -36 -33 -8 0 -17 -12 -20 -27 -3
-16 -28 -73 -55 -128 -27 -55 -54 -125 -60 -155 -23 -123 -27 -164 -20 -190 4
-15 4 -34 -1 -41 -5 -8 -9 -20 -9 -26 0 -20 66 -88 118 -123 43 -29 52 -31
108 -27 112 8 235 83 250 151 3 17 18 53 31 80 39 78 30 116 -48 188 -86 79
-80 84 105 70 115 -8 168 -7 251 4 59 7 111 16 116 20 12 7 160 -25 174 -38
16 -15 -29 -45 -79 -52 -73 -11 -132 -51 -166 -110 -56 -96 -92 -207 -126
-391 -34 -184 -46 -225 -64 -225 -5 0 -10 -11 -10 -25 0 -14 -12 -37 -26 -52
-21 -21 -32 -25 -64 -20 -26 3 -47 -1 -67 -12 -48 -29 -183 -82 -193 -76 -18
11 -10 57 19 109 16 28 35 74 42 101 6 28 22 69 35 93 12 23 20 42 16 42 -4 0
-32 -7 -62 -15 -30 -8 -104 -19 -163 -25 -90 -8 -116 -7 -155 6 -87 29 -217
95 -249 126 -39 38 -79 125 -97 214 -7 38 -22 100 -32 137 -15 60 -16 79 -6
144 13 78 75 241 117 305 14 21 43 48 65 60 28 16 39 28 36 40 -14 58 141 169
286 203 39 9 115 15 200 15 88 0 139 4 144 11 4 7 24 9 53 5 25 -3 124 -9 219
-12z m2182 -281 c50 -42 54 -63 20 -135 -16 -35 -47 -132 -69 -216 -23 -84
-50 -171 -61 -193 -12 -22 -27 -82 -35 -132 -15 -99 -33 -160 -61 -202 -34
-52 -136 -83 -177 -52 -10 6 -37 61 -62 121 -25 59 -65 135 -89 167 -25 33
-61 87 -82 121 l-37 61 -23 -46 c-36 -69 -75 -179 -70 -194 5 -12 -52 -191
-73 -231 -16 -29 -30 -28 -82 8 -24 16 -54 30 -65 30 -12 0 -33 9 -48 21 -42
33 -36 84 25 209 29 58 63 117 76 131 21 23 23 30 12 46 -10 17 -5 40 31 147
23 70 53 139 65 155 27 32 211 110 225 95 4 -5 27 -63 50 -129 23 -66 64 -167
91 -224 27 -57 49 -113 49 -125 1 -19 57 -93 65 -84 1 1 12 43 24 92 12 49 28
101 36 116 8 15 14 47 13 72 0 24 13 84 29 133 17 50 38 116 47 147 12 40 27
66 52 87 44 39 82 40 124 4z m1153 -69 c62 -20 122 -44 135 -52 30 -20 72 -92
72 -125 0 -45 -40 -137 -75 -171 -49 -50 -87 -53 -152 -14 -29 18 -67 47 -84
64 -29 30 -30 34 -20 72 6 22 18 45 25 52 12 9 18 6 30 -18 19 -37 74 -84 94
-80 16 3 45 75 38 94 -6 16 -122 80 -160 88 -15 4 -53 2 -82 -4 -57 -12 -81
-34 -118 -107 -15 -31 -15 -35 0 -65 27 -54 45 -69 139 -113 50 -23 107 -56
127 -73 19 -18 40 -32 46 -32 21 0 71 -52 82 -85 15 -47 -2 -128 -39 -187 -52
-81 -154 -123 -348 -142 -59 -5 -66 -3 -150 39 -124 63 -195 121 -217 179 -19
50 -16 98 7 130 12 17 16 17 44 3 16 -9 49 -41 72 -71 43 -58 109 -100 199
-126 71 -22 202 20 202 65 0 44 -91 105 -231 156 -46 16 -91 37 -101 46 -21
19 -108 185 -108 207 0 8 5 38 11 67 20 92 108 163 277 225 86 31 136 27 285
-22z m1341 1 c186 -59 238 -121 201 -239 -34 -109 -125 -177 -191 -143 -44 23
-107 76 -126 106 -17 26 -17 29 3 69 12 23 25 42 30 42 5 0 18 -18 29 -40 17
-33 62 -70 84 -70 11 0 36 60 36 84 0 21 -12 31 -82 66 -75 37 -88 41 -132 35
-75 -9 -103 -29 -134 -91 l-27 -55 24 -44 c26 -50 47 -66 122 -96 82 -32 245
-146 260 -181 28 -67 -5 -183 -68 -238 -68 -60 -149 -86 -319 -104 -58 -6 -66
-4 -138 33 -41 21 -104 59 -139 84 -55 39 -67 54 -85 102 -22 57 -22 57 -3
101 11 24 24 44 30 44 17 0 71 -51 102 -97 26 -37 46 -52 116 -84 47 -21 97
-39 111 -39 37 0 130 26 148 40 21 18 17 54 -10 83 -27 29 -136 86 -214 112
-62 20 -107 55 -127 99 -8 17 -26 51 -40 76 -43 77 -29 176 34 239 77 77 256
155 341 148 25 -2 99 -21 164 -42z m-4194 20 c51 -10 177 -17 398 -22 318 -6
322 -6 322 -27 0 -12 -4 -27 -8 -33 -11 -18 -95 -32 -257 -44 -93 -7 -153 -16
-180 -28 -69 -30 -124 -108 -141 -198 l-7 -36 54 8 c151 21 314 8 366 -30 27
-20 8 -33 -80 -49 -42 -8 -109 -26 -147 -40 -39 -15 -88 -26 -109 -26 -101 0
-128 -24 -138 -125 -5 -51 -5 -52 31 -74 19 -12 40 -19 46 -16 21 13 364 30
414 21 82 -16 2 -79 -112 -89 -37 -3 -110 -17 -162 -31 -123 -33 -271 -56
-340 -54 -30 1 -101 -2 -157 -6 -57 -5 -103 -6 -103 -1 0 4 18 27 40 52 40 46
74 123 90 203 5 25 19 77 30 115 37 125 60 217 60 244 0 14 6 49 14 76 18 68
10 106 -30 154 l-34 40 22 15 c27 19 26 19 118 1z m2084 -19 c51 -33 96 -79
96 -98 0 -15 -89 -268 -106 -301 -8 -16 -14 -53 -14 -82 0 -43 -5 -59 -24 -80
-29 -31 -51 -121 -43 -177 9 -65 -55 -118 -144 -118 -37 0 -47 5 -81 42 -21
23 -38 45 -38 50 0 5 13 34 29 66 29 58 51 163 51 249 0 30 9 68 25 101 14 29
34 107 45 175 26 152 30 161 77 186 52 28 66 26 127 -13z m1337 6 c46 -30 99
-85 99 -105 0 -6 -27 -93 -60 -194 -33 -100 -60 -195 -60 -211 0 -15 -11 -43
-25 -61 -28 -39 -49 -129 -41 -176 9 -45 0 -62 -49 -90 -60 -36 -114 -34 -159
6 -19 16 -38 39 -41 49 -4 11 7 49 25 91 26 59 34 96 45 200 10 103 17 133 34
155 12 16 21 41 21 63 0 20 9 69 20 110 11 41 20 89 20 107 0 28 6 37 43 58
54 33 73 32 128 -2z m-5356 -1537 c138 -17 192 -30 330 -79 201 -72 357 -181
687 -478 171 -154 259 -215 460 -320 384 -201 485 -212 1813 -205 873 5 892 6
1130 57 148 33 266 74 396 140 208 105 296 166 529 366 345 298 488 393 685
457 152 50 249 62 495 61 394 -2 559 -47 913 -246 169 -96 388 -276 538 -444
152 -169 324 -417 438 -629 35 -66 87 -160 116 -210 121 -208 337 -693 399
-897 19 -62 59 -192 89 -288 81 -258 192 -655 227 -815 17 -77 49 -211 71
-298 22 -87 60 -267 84 -400 24 -133 51 -276 60 -317 49 -240 144 -994 165
-1308 13 -203 13 -1584 -1 -1788 -22 -336 -108 -790 -200 -1060 -144 -424
-319 -685 -575 -857 -188 -125 -290 -152 -594 -152 -191 0 -213 2 -312 27
-248 63 -599 234 -1068 520 -85 52 -191 114 -235 138 -92 49 -408 227 -835
470 -625 355 -1476 795 -1660 859 -86 29 -112 33 -275 43 -209 12 -1483 3
-1587 -11 -77 -10 -294 -95 -471 -183 -192 -96 -797 -426 -1032 -563 -126 -73
-216 -123 -590 -328 -60 -33 -161 -91 -225 -130 -63 -39 -209 -125 -325 -192
-115 -67 -273 -160 -350 -205 -221 -131 -626 -334 -755 -378 -224 -77 -414
-103 -609 -83 -289 30 -471 115 -684 320 -119 114 -175 202 -277 436 -139 317
-177 469 -269 1090 -46 305 -51 400 -51 945 0 676 5 741 114 1680 14 118 30
258 36 310 18 161 108 631 186 970 30 129 75 332 99 450 103 502 351 1238 608
1810 47 105 210 396 291 520 177 269 363 509 510 655 202 200 564 412 832 486
230 64 456 82 679 54z m7146 -9600 c-16 -60 -30 -103 -30 -95 0 8 10 60 24
115 14 55 25 102 26 105 0 3 2 1 5 -5 2 -5 -10 -59 -25 -120z m-194 -147 c-3
-8 -6 -5 -6 6 -1 11 2 17 5 13 3 -3 4 -12 1 -19z m-157 -130 c0 -4 61 -7 136
-7 111 1 136 3 141 16 5 13 7 13 15 -1 7 -12 24 -16 63 -16 30 0 55 -4 55 -9
0 -5 27 -35 61 -68 33 -32 68 -69 76 -83 l15 -26 69 23 c38 12 86 25 106 28
21 3 -10 -10 -69 -30 l-108 -36 0 -95 c0 -86 2 -94 19 -94 11 0 23 -4 26 -10
3 -6 -5 -10 -18 -10 -15 0 -44 -17 -73 -43 l-48 -44 18 -49 c11 -27 28 -68 39
-92 19 -42 21 -43 59 -37 l39 7 -3 -129 -3 -128 -177 -3 -176 -2 -6 67 c-14
173 -25 263 -31 272 -3 6 -21 11 -38 11 l-32 0 25 -20 c20 -16 22 -20 8 -20
-27 0 -25 -60 2 -67 27 -7 31 -30 28 -143 l-3 -95 -190 0 -190 0 -3 123 -3
122 31 0 30 0 0 81 0 81 -27 -17 c-16 -10 -43 -29 -60 -42 -57 -42 -36 -16 27
33 l60 47 0 68 c0 77 0 77 -75 59 -59 -13 -53 -6 15 19 56 21 74 41 50 56 -5
3 -10 11 -10 16 0 6 5 7 11 3 7 -4 10 1 7 12 -2 12 -13 20 -31 22 l-27 3 0
120 0 119 75 0 c41 0 75 3 75 8 0 4 -12 25 -26 47 l-25 40 35 -40 c20 -22 36
-43 36 -47z m297 50 c-3 -8 -6 -5 -6 6 -1 11 2 17 5 13 3 -3 4 -12 1 -19z
m448 2 c-9 -14 -70 -44 -133 -65 -29 -9 -64 -29 -79 -43 -20 -22 -23 -23 -14
-6 14 29 46 48 111 67 30 9 69 25 85 36 36 23 38 24 30 11z m-216 -36 c-13
-14 -37 -35 -54 -46 -16 -11 -7 1 20 26 55 51 72 60 34 20z m-7791 -91 c65
-70 82 -107 82 -179 0 -29 -5 -44 -16 -48 -9 -3 -69 -6 -135 -6 l-119 0 0 25
c0 24 -3 25 -60 25 l-60 0 0 -40 0 -40 144 0 144 0 51 -56 51 -56 0 -167 0
-167 -68 -67 c-41 -41 -81 -71 -102 -77 -19 -6 -100 -10 -181 -10 l-145 0 -43
37 c-24 20 -61 59 -82 86 -38 47 -39 51 -39 128 l0 80 138 -3 137 -3 -3 -37
-4 -38 61 0 61 0 0 65 0 65 -134 0 c-132 0 -135 1 -167 27 -17 15 -45 45 -60
67 -28 38 -29 42 -29 167 l0 127 36 44 c19 23 54 60 77 80 l42 37 180 1 180 0
63 -67z m922 -78 l0 -145 -140 0 c-133 0 -140 1 -140 20 0 18 -7 20 -61 20
l-60 0 3 -42 3 -43 113 -3 113 -3 -3 -112 -3 -112 -113 -3 -113 -3 3 -52 3
-52 55 0 c53 0 55 1 58 28 l3 27 140 0 140 0 -3 -152 -3 -153 -359 -3 c-198
-1 -363 1 -367 5 -4 5 -4 63 -2 131 l6 122 26 -2 c26 -3 26 -2 29 67 2 39 1
134 -3 213 -7 141 -7 142 -31 142 l-24 0 0 125 0 125 365 0 365 0 0 -145z
m500 19 l0 -127 -40 6 -40 5 0 -213 c0 -118 3 -216 8 -218 4 -3 31 -2 60 0 50
5 53 7 48 28 -3 13 -3 44 0 69 l7 46 129 0 128 0 -2 -197 -3 -198 -355 0 -355
0 -3 129 -3 128 25 -6 c14 -3 28 -1 31 5 4 6 4 102 0 215 l-7 204 -24 0 c-24
0 -24 0 -24 125 l0 125 210 0 210 0 0 -126z m1100 -19 l0 -145 -136 0 c-127 0
-136 1 -141 20 -5 17 -14 20 -59 20 l-54 0 0 -45 0 -45 105 0 105 0 0 -115 0
-115 -105 0 -105 0 0 -50 c0 -59 9 -65 75 -56 39 6 45 10 45 32 l0 24 135 0
136 0 -3 -152 -3 -153 -362 -3 -363 -3 0 132 0 132 30 -6 30 -6 0 214 0 215
-30 0 -30 0 0 125 0 125 365 0 365 0 0 -145z m610 118 c18 -15 55 -53 82 -86
l49 -59 -3 -89 -3 -89 -135 -3 -135 -2 -3 53 -3 52 -50 0 -49 0 0 -209 c0
-116 3 -212 8 -214 4 -2 26 -2 50 1 l42 4 0 64 0 64 140 0 140 0 -1 -112 -1
-113 -85 -80 -85 -80 -162 -3 -161 -3 -85 85 -84 86 -4 294 -4 295 31 38 c17
21 56 59 87 86 l56 47 168 0 c168 0 168 0 200 -27z m1000 -143 l0 -171 -117 3
-118 3 -5 45 c-3 25 -9 44 -15 43 -6 -2 -10 -82 -10 -215 l0 -213 35 0 35 0 0
-125 0 -125 -165 -3 c-91 -2 -184 0 -208 3 l-43 6 3 122 3 122 38 -3 39 -3 -4
215 c-2 119 -8 219 -12 223 -12 12 -26 -19 -26 -59 l0 -38 -109 0 -108 0 -7
46 c-8 62 -8 279 1 287 3 4 183 7 400 7 l393 0 0 -170z m889 33 c-3 -98 0
-145 9 -160 7 -13 15 -23 18 -23 17 0 26 70 25 188 l-3 132 181 0 181 0 0
-124 c0 -71 -4 -127 -10 -131 -5 -3 -19 -1 -30 5 -30 16 -38 7 -118 -138 -71
-131 -86 -167 -97 -239 -7 -45 -7 -46 45 -47 l25 -1 -2 -120 c-3 -112 -4 -120
-24 -127 -12 -5 -99 -7 -193 -6 l-171 3 -3 128 -3 129 32 -7 32 -7 -5 58 c-4
51 -16 80 -94 221 l-89 162 -37 -6 -38 -6 0 127 0 126 186 0 186 0 -3 -137z
m1060 50 l81 -87 0 -291 0 -290 -85 -85 -85 -85 -167 -3 -166 -4 -83 85 -84
85 0 305 0 304 80 77 80 76 174 0 174 0 81 -87z m531 -27 c0 -111 -1 -115 -22
-118 -23 -3 -23 -3 -26 -227 l-2 -224 31 7 c17 3 42 6 55 6 l24 0 0 216 c0
207 -1 216 -20 221 -19 5 -20 14 -20 119 l0 114 199 0 200 0 3 -120 c3 -130 3
-129 -59 -130 l-22 0 -3 -260 -3 -260 -78 -77 -77 -78 -166 -3 -166 -4 -78 83
-77 83 -7 119 c-3 66 -6 182 -6 258 l0 138 -32 3 -33 3 -3 123 -3 122 196 0
195 0 0 -114z m1310 -132 c-25 -8 -56 -13 -70 -11 -17 2 -7 6 30 14 77 15 93
14 40 -3z m-49 -80 l-9 -39 -1 36 c-1 20 2 39 6 42 12 13 13 0 4 -39z m46 -90
c-3 -3 -12 -4 -19 -1 -8 3 -5 6 6 6 11 1 17 -2 13 -5z m47 -247 l51 -48 -79
56 c-43 30 -83 55 -90 55 -6 0 -27 14 -46 30 -34 30 -34 30 39 -7 40 -21 96
-59 125 -86z m-6606 -959 c-3 -121 -3 -122 -28 -128 -30 -7 -28 -25 17 -170 8
-27 20 9 68 205 25 103 50 194 56 202 12 14 136 19 154 5 6 -4 25 -72 44 -152
38 -171 70 -284 78 -277 5 5 44 171 40 172 -1 0 -11 5 -22 11 -18 10 -20 22
-20 130 l0 119 198 3 197 2 0 -124 0 -125 -47 -3 c-43 -3 -48 -6 -51 -28 -5
-38 -139 -581 -151 -612 l-11 -28 -128 0 -128 0 -33 138 c-19 75 -37 143 -41
151 -4 8 -18 -33 -34 -102 -15 -63 -32 -131 -37 -151 l-10 -36 -129 0 -129 0
-11 38 c-27 94 -150 599 -150 615 0 13 -9 17 -44 17 -31 0 -46 5 -50 16 -3 9
-6 62 -6 119 0 90 2 104 18 108 9 3 102 5 205 6 l188 1 -3 -122z m1582 -28 l0
-150 -135 0 -135 0 -6 25 c-6 24 -10 26 -58 23 l-51 -3 0 -40 0 -40 108 -3
107 -3 0 -114 0 -115 -42 0 c-24 0 -74 -3 -111 -7 l-68 -6 3 -46 3 -46 55 0
c55 0 55 0 58 33 l3 32 135 0 134 0 0 -154 0 -153 -92 -7 c-117 -8 -497 -8
-577 0 l-61 7 0 118 0 119 35 0 35 0 0 163 c0 89 -3 185 -6 214 -6 47 -9 52
-33 55 l-26 3 -3 109 c-1 61 0 116 2 123 4 10 77 13 366 13 l360 0 0 -150z
m670 -5 c27 -82 68 -215 91 -295 23 -80 51 -164 60 -187 17 -41 21 -43 59 -43
l40 0 0 -119 0 -118 -70 -7 c-75 -8 -262 -7 -304 1 l-26 5 0 108 0 108 30 6
c24 4 30 11 30 31 0 25 0 25 -95 25 -88 0 -95 -1 -95 -20 0 -11 0 -23 -1 -27
0 -5 10 -10 22 -13 21 -5 22 -10 20 -110 -1 -57 -3 -106 -5 -107 -8 -8 -177
-12 -263 -7 l-103 7 0 123 0 123 41 -2 40 -2 55 165 c30 91 75 233 100 315 25
83 52 160 60 173 14 22 19 22 140 20 l125 -3 49 -150z m937 78 c41 -43 79 -88
84 -101 11 -29 11 -211 0 -271 -7 -36 -22 -57 -80 -115 l-71 -71 -115 -3 c-91
-3 -115 -7 -115 -18 0 -9 12 -14 35 -14 l35 0 0 -124 0 -123 -67 -6 c-86 -9
-291 -9 -320 -1 -22 6 -23 10 -23 131 l0 126 30 -6 c16 -4 32 -2 35 3 4 6 3
102 -1 215 l-7 204 -26 3 -26 3 -3 117 c-2 105 -1 117 15 121 10 3 137 5 281
6 l264 1 75 -77z m765 -10 l89 -87 -3 -297 -3 -297 -75 -74 c-71 -70 -78 -75
-130 -81 -69 -8 -211 -8 -268 1 -37 6 -55 18 -118 82 l-74 75 0 304 0 304 73
70 c39 38 81 73 92 77 11 5 89 9 174 9 l154 1 89 -87z m583 -75 c89 -166 126
-228 135 -228 3 0 4 34 2 75 -3 72 -5 75 -28 75 -31 0 -36 21 -32 140 l3 95
180 0 180 0 3 -70 c2 -38 0 -94 -3 -122 -6 -48 -9 -53 -31 -53 l-24 0 0 -334
0 -335 -104 -3 c-156 -5 -149 -8 -209 103 -29 52 -81 148 -117 213 l-65 117
-6 -88 c-3 -48 -4 -93 -1 -100 2 -7 20 -13 40 -15 l37 -3 3 -111 3 -112 -133
-7 c-73 -4 -158 -5 -188 -3 l-55 4 -3 60 c-2 32 -1 87 3 122 6 57 8 62 31 62
l24 0 0 214 0 215 -27 3 -28 3 -3 117 c-2 105 -1 117 15 121 10 3 84 5 165 6
l146 1 87 -162z"/>
<path d="M9709 20753 c-20 -21 -49 -56 -65 -78 -16 -22 -52 -69 -80 -105 -46
-58 -84 -119 -84 -135 0 -7 220 -4 250 4 24 7 25 10 24 81 -1 65 -8 270 -9
270 -1 0 -17 -17 -36 -37z"/>
<path d="M10617 20760 c-16 -5 -34 -14 -42 -20 -18 -15 -64 -155 -68 -205 l-2
-40 118 -3 c115 -3 119 -2 156 25 22 15 51 48 66 72 26 44 26 45 10 87 -9 24
-30 55 -46 69 -26 22 -40 25 -97 24 -37 0 -80 -5 -95 -9z"/>
<path d="M10956 16340 c3 -19 9 -69 14 -110 8 -71 36 -286 61 -465 6 -44 11
-86 12 -94 1 -8 -3 -16 -9 -18 -6 -2 -26 26 -44 61 -19 36 -35 64 -37 62 -2
-1 11 -34 29 -72 l32 -70 47 2 c26 1 52 5 59 9 14 9 35 -9 26 -23 -3 -5 -23
-10 -45 -10 -21 0 -59 -6 -83 -13 -23 -7 -46 -13 -50 -14 -4 0 -29 37 -55 82
-31 54 -100 140 -197 248 -82 91 -172 195 -200 230 -27 35 -52 62 -54 60 -13
-12 146 -219 261 -342 82 -86 152 -171 181 -217 25 -42 46 -79 46 -81 0 -3 -7
-5 -15 -5 -8 0 -15 -4 -15 -10 0 -19 -18 -10 -71 38 -49 43 -51 44 -21 9 32
-38 41 -67 20 -67 -19 0 -94 60 -423 340 -142 122 -282 231 -325 255 -25 13
-3 -6 125 -110 261 -213 511 -422 555 -462 l45 -43 -32 0 c-17 0 -34 -4 -38
-10 -3 -5 -36 12 -73 39 -76 55 -142 95 -142 87 0 -2 39 -33 88 -67 48 -34 92
-66 97 -71 6 -6 -70 -8 -195 -6 -194 3 -207 4 -244 26 -25 15 -35 18 -27 8 12
-14 10 -16 -10 -17 -13 0 8 -7 46 -15 42 -9 132 -14 225 -15 158 0 210 -5 210
-18 0 -5 -30 -11 -67 -14 -38 -4 -95 -14 -128 -22 -33 -9 -84 -19 -114 -23
l-55 -7 3 -61 2 -61 -73 -21 c-40 -12 -98 -28 -128 -36 -30 -8 -45 -15 -34
-15 23 -1 197 33 225 44 12 5 18 -2 23 -26 12 -61 10 -64 -74 -99 -45 -18 -79
-35 -76 -37 2 -2 37 10 77 27 40 17 79 28 86 26 7 -3 13 0 13 7 0 7 12 18 28
24 l27 11 -31 -5 c-30 -5 -31 -3 -38 38 -4 23 -3 45 1 49 21 18 187 81 229 87
44 6 46 5 35 -14 -6 -12 -28 -26 -48 -31 -36 -10 -36 -11 -8 -10 45 0 47 0 35
-22 -8 -15 -7 -19 2 -16 42 13 69 16 63 6 -3 -5 -14 -10 -23 -11 -9 0 -35 -9
-57 -20 l-40 -19 35 4 c19 2 43 7 52 11 13 5 15 2 11 -14 -3 -12 -1 -21 6 -21
6 0 11 11 11 24 0 27 20 39 41 25 11 -7 11 -9 -3 -9 -10 0 -18 -4 -18 -10 0
-5 9 -10 20 -10 34 0 22 -20 -24 -40 -24 -10 -47 -23 -50 -29 -11 -18 -26 -13
-20 7 4 10 3 13 -3 6 -4 -6 -24 -20 -43 -30 l-35 -19 28 -3 c25 -3 27 -5 15
-20 -7 -9 3 -5 22 9 19 14 57 37 83 52 43 23 51 25 64 12 8 -8 25 -15 39 -15
24 0 32 -14 14 -25 -5 -3 -10 -18 -10 -32 0 -15 -8 -36 -17 -47 -15 -17 -15
-19 -1 -8 26 20 27 2 3 -70 -24 -75 -18 -81 14 -14 22 49 77 116 93 116 6 0 8
-13 4 -32 -6 -32 -6 -32 20 10 16 27 30 40 36 34 5 -5 -9 -52 -37 -123 -75
-186 -87 -210 -104 -205 -9 3 -36 10 -61 16 -25 7 -49 14 -53 17 -4 2 9 28 28
56 21 30 25 37 8 18 -15 -19 -38 -46 -50 -59 -23 -25 -34 -57 -12 -35 8 8 29
5 78 -12 70 -24 74 -30 52 -88 l-10 -26 -76 31 c-64 26 -76 34 -71 50 4 19 4
19 -15 3 -15 -15 -21 -16 -34 -5 -9 7 -18 10 -21 7 -6 -6 121 -68 179 -86 20
-7 37 -17 37 -21 0 -5 -9 -33 -20 -61 -12 -28 -19 -53 -17 -55 2 -2 15 24 28
58 l25 63 54 -2 55 -2 -48 9 c-27 5 -51 11 -54 14 -3 2 0 21 7 40 11 34 14 36
58 36 58 0 69 -7 75 -45 l4 -30 2 33 c1 24 7 35 24 42 18 7 19 9 3 9 -15 1
-17 7 -12 34 3 17 8 56 12 85 l7 52 68 0 69 0 0 -127 c0 -71 -4 -134 -9 -141
-6 -9 -33 -13 -100 -11 -50 1 -95 -1 -98 -5 -3 -3 -1 -6 5 -6 9 0 10 -25 6
-88 -5 -58 -3 -95 4 -108 9 -15 11 4 12 84 l0 102 70 2 c39 1 78 2 88 2 14 1
18 -11 24 -74 4 -41 12 -95 17 -120 8 -36 9 -21 5 72 -3 69 -1 119 5 122 6 4
6 19 1 39 -5 17 -10 83 -12 146 l-3 113 55 19 c38 12 46 17 25 16 -28 -2 -30
1 -43 57 -13 49 -13 60 -1 67 10 7 24 -2 47 -28 19 -21 31 -31 27 -23 -5 8
-17 25 -27 37 -20 21 -20 21 1 32 18 10 23 8 41 -21 10 -18 22 -46 26 -63 3
-16 10 -34 14 -40 4 -5 11 -25 15 -43 3 -17 36 -80 72 -140 36 -59 92 -165
124 -237 64 -141 76 -153 29 -26 -38 103 -67 161 -141 276 -36 56 -71 127 -89
180 -30 88 -96 205 -116 205 -5 0 -19 -7 -30 -15 -10 -8 -27 -15 -36 -15 -10
0 -18 -5 -18 -11 0 -5 -4 -7 -10 -4 -5 3 -10 9 -10 13 0 7 51 32 73 36 6 1 18
6 26 10 15 10 13 12 186 -183 87 -98 239 -246 300 -291 45 -34 -118 144 -249
272 -131 128 -140 139 -123 152 16 13 23 12 55 -7 20 -12 89 -74 152 -138 63
-64 149 -141 192 -172 83 -61 100 -82 142 -170 36 -75 43 -69 11 9 -25 61 -30
84 -18 84 17 0 158 -91 263 -169 166 -124 167 -124 35 3 -119 114 -121 115
-305 208 l-185 93 -122 118 -122 119 35 51 c32 46 25 40 -27 -26 -15 -20 -16
-20 -47 -1 -18 10 -32 21 -32 24 0 3 17 24 38 48 l37 43 115 -26 c155 -34 262
-64 278 -77 18 -15 7 -59 -31 -131 -18 -34 -26 -61 -21 -66 11 -11 154 -72
154 -66 0 2 -32 21 -70 41 l-70 37 18 31 c10 17 28 57 41 89 13 31 28 57 35
57 6 0 51 -7 100 -16 48 -8 90 -13 92 -11 2 2 -24 12 -58 22 -131 37 -130 36
-125 54 38 119 53 151 72 151 11 0 65 -14 120 -30 117 -35 121 -35 75 -10 -43
24 -36 25 21 4 24 -9 64 -23 89 -30 35 -10 39 -13 18 -13 -15 -1 -39 4 -54 9
-15 6 -28 9 -31 7 -2 -2 21 -13 51 -25 54 -21 101 -48 166 -99 28 -21 26 -18
-9 17 -29 28 -40 45 -32 48 21 7 63 -31 111 -100 25 -36 86 -108 135 -160 112
-117 209 -262 290 -432 101 -211 154 -383 207 -676 21 -115 23 -154 23 -470 0
-381 -5 -421 -81 -762 -123 -554 -363 -1033 -668 -1333 -263 -258 -552 -391
-898 -411 -314 -19 -764 132 -1046 349 -143 111 -308 310 -387 467 -46 90 -96
212 -90 218 6 7 7 7 98 16 86 8 135 27 216 83 l65 45 33 -39 c18 -21 65 -101
104 -178 117 -229 177 -324 254 -401 90 -90 140 -115 250 -122 152 -9 263 28
374 125 66 58 94 101 123 194 23 73 23 80 22 524 0 275 -5 485 -12 540 -6 50
-16 167 -22 260 -14 215 -33 336 -70 447 -57 170 -96 224 -236 334 -45 35 -89
75 -97 88 -9 13 -27 62 -40 109 -36 126 -64 169 -137 206 -93 46 -191 64 -323
59 -134 -5 -195 -27 -256 -93 -60 -66 -77 -103 -130 -303 l-12 -42 -902 2
-901 3 -28 108 c-15 59 -39 130 -55 158 -35 65 -110 133 -170 153 -71 24 -247
22 -354 -5 -158 -40 -194 -73 -240 -220 -15 -49 -37 -105 -48 -123 -11 -18
-65 -69 -119 -114 -107 -88 -137 -125 -177 -215 -52 -119 -80 -248 -95 -440
-5 -72 -14 -179 -20 -237 -32 -346 -43 -582 -37 -834 8 -367 28 -439 151 -553
73 -68 156 -108 261 -128 94 -18 158 -10 251 34 101 47 233 193 281 309 28 70
136 277 164 317 59 83 50 80 110 39 30 -20 78 -48 108 -62 93 -43 254 -41 409
4 33 9 28 -8 -25 -98 -183 -307 -442 -551 -698 -657 -175 -73 -399 -106 -555
-82 -201 31 -369 89 -518 178 -527 313 -914 984 -1044 1813 -21 132 -23 179
-23 530 0 417 8 502 71 753 129 516 410 896 797 1077 319 149 764 165 1147 40
438 -143 747 -456 943 -955 36 -92 47 -109 63 -107 45 8 45 0 15 347 -6 72
-18 225 -26 340 -23 308 -26 323 -74 365 -125 111 -486 212 -919 256 -746 76
-1421 -145 -1920 -631 -383 -372 -603 -814 -678 -1365 -39 -282 -16 -732 52
-1011 101 -422 251 -737 481 -1009 419 -498 995 -743 1743 -744 319 0 617 44
915 134 230 70 369 125 400 160 27 30 45 117 55 280 5 85 12 178 15 205 4 28
12 135 19 238 11 160 17 193 33 215 l20 27 220 3 221 2 56 -92 c54 -90 90
-134 131 -163 20 -13 20 -16 -25 -237 -24 -123 -44 -239 -45 -259 0 -53 37
-100 147 -189 302 -245 854 -483 1288 -555 131 -22 458 -31 601 -16 467 48
907 237 1264 543 440 377 712 905 820 1593 22 139 31 491 16 651 -42 455 -204
847 -493 1189 -128 151 -305 299 -508 423 -91 56 -281 145 -289 136 -3 -3 1
-10 9 -15 15 -11 11 -10 -60 7 l-25 7 29 -31 29 -31 -31 11 c-18 7 -32 18 -32
25 0 7 -17 21 -37 31 -21 10 -72 36 -113 57 -41 22 -86 38 -100 37 -30 -3
-119 15 -139 28 -12 7 -12 11 -3 23 10 12 10 15 -4 13 -9 0 -19 4 -21 11 -4
12 12 18 170 58 59 15 106 30 104 32 -3 2 -56 -8 -118 -23 -182 -43 -169 -44
-171 7 l-1 44 -6 -43 c-8 -55 -41 -79 -78 -55 -19 13 -23 24 -23 68 l0 52 41
12 c34 10 43 10 50 -1 7 -10 9 -10 9 2 0 11 43 29 151 63 83 27 149 50 146 53
-6 7 -278 -63 -340 -87 -26 -11 -51 -19 -56 -19 -4 0 -13 48 -19 108 -10 102
-12 108 -43 136 l-32 29 44 42 c40 37 53 43 134 59 116 23 133 31 240 106 142
99 142 105 0 17 -44 -28 -98 -58 -120 -68 -48 -21 -180 -52 -198 -46 -7 2 56
74 143 162 102 105 130 137 81 94 -41 -35 -130 -127 -199 -204 -69 -77 -130
-141 -136 -143 -6 -1 -26 12 -44 31 l-32 33 39 32 c49 39 85 86 106 135 20 49
13 47 -18 -6 -14 -23 -50 -66 -81 -95 l-56 -53 -48 37 c-44 34 -44 34 -9 3 20
-19 37 -37 37 -40 0 -4 -38 -39 -85 -78 -77 -65 -134 -130 -248 -281 -40 -54
-67 -68 -43 -22 8 15 60 90 116 167 56 77 118 172 138 210 42 82 103 227 98
232 -2 2 -19 -28 -37 -67 -20 -41 -39 -68 -46 -66 -7 3 -10 -1 -7 -9 9 -22
-36 -110 -111 -220 -38 -55 -95 -139 -128 -187 -32 -49 -63 -88 -68 -88 -11 0
14 59 52 120 29 47 109 223 109 238 -1 4 -23 -39 -50 -96 -48 -100 -50 -102
-77 -96 -15 4 -32 9 -37 12 -16 9 17 252 49 360 15 48 18 52 48 53 27 2 28 2
7 6 -14 3 -29 8 -35 12 -5 4 -35 8 -65 9 l-55 1 44 -10 43 -11 -6 -41 c-4 -23
-18 -116 -31 -206 -14 -90 -27 -166 -30 -169 -14 -14 -17 13 -7 59 7 28 12 76
11 107 -1 56 -1 56 -9 17 -4 -22 -13 -73 -20 -112 l-12 -73 -39 0 c-22 0 -39
-5 -39 -11 0 -6 9 -9 20 -6 17 4 20 0 20 -29 0 -26 -4 -34 -18 -34 -15 0 -21
12 -30 53 -17 84 -21 113 -37 297 -9 96 -20 189 -25 205 -5 17 -16 59 -24 95
-9 36 -13 49 -10 30z m740 -435 l39 -35 -25 -20 c-14 -11 -64 -40 -111 -65
-60 -31 -102 -61 -136 -99 l-49 -53 -27 21 -26 21 52 65 c52 64 210 200 232
200 7 0 29 -16 51 -35z m74 -85 c14 -20 27 -63 37 -126 8 -52 13 -97 11 -100
-5 -4 -157 -61 -201 -74 -15 -5 -51 -6 -78 -3 -45 5 -54 10 -76 44 -27 41 -41
53 -23 20 15 -29 -12 -51 -63 -51 l-41 0 90 90 c65 67 109 101 164 130 42 22
91 53 110 70 19 16 38 29 42 30 4 0 16 -14 28 -30z m-624 -122 c-3 -13 -6 -26
-6 -30 0 -5 -7 -8 -15 -8 -10 0 -15 10 -15 30 0 24 4 30 21 30 17 0 20 -4 15
-22z m101 14 c9 -6 6 -19 -13 -50 -14 -23 -27 -42 -29 -42 -1 0 -3 16 -3 36 0
19 -3 38 -6 41 -3 4 -6 -3 -6 -15 0 -13 -6 -22 -15 -22 -10 0 -15 10 -15 30 0
28 2 30 38 30 20 0 42 -4 49 -8z m147 -80 c7 -12 -74 -88 -101 -97 -35 -10
-29 15 18 73 35 42 45 49 60 42 10 -6 20 -14 23 -18z m-209 -12 c9 -27 -6 -50
-16 -24 -4 10 -8 25 -8 32 -1 20 17 14 24 -8z m-33 -35 c16 -21 6 -25 -61 -24
-46 1 -81 -4 -102 -15 -42 -21 -48 -14 -11 13 47 33 157 50 174 26z m668 -67
l0 -41 -62 7 c-92 11 -118 17 -112 28 11 17 151 60 167 51 4 -2 7 -22 7 -45z
m-920 12 c0 -5 -4 -10 -10 -10 -5 0 -10 5 -10 10 0 6 5 10 10 10 6 0 10 -4 10
-10z m250 0 c0 -5 -7 -7 -15 -4 -8 4 -15 8 -15 10 0 2 7 4 15 4 8 0 15 -4 15
-10z m-375 -50 c3 -5 1 -10 -4 -10 -6 0 -11 5 -11 10 0 6 2 10 4 10 3 0 8 -4
11 -10z m423 -29 c28 -35 31 -46 33 -114 3 -86 -10 -111 -63 -122 -52 -12
-146 5 -178 31 -25 22 -27 28 -19 57 5 17 9 49 9 69 0 20 5 40 10 43 6 3 10
16 10 29 0 37 19 46 95 46 71 0 72 0 103 -39z m-438 -15 c0 -2 -7 -7 -16 -10
-8 -3 -12 -2 -9 4 6 10 25 14 25 6z m-65 -32 c-11 -8 -19 -21 -17 -29 2 -9
-12 -16 -45 -21 -26 -3 -89 -22 -139 -40 -51 -19 -97 -34 -103 -34 -6 0 -11
18 -11 44 l0 43 73 12 c39 6 95 18 122 25 28 8 70 14 95 15 42 0 44 -1 25 -15z
m755 6 c-8 -5 -19 -10 -25 -10 -5 0 -3 5 5 10 8 5 20 10 25 10 6 0 3 -5 -5
-10z m220 -15 l25 -15 -30 6 c-16 4 -39 11 -50 15 -18 7 -18 8 5 8 14 0 36 -6
50 -14z m-423 -37 c-3 -8 -6 -5 -6 6 -1 11 2 17 5 13 3 -3 4 -12 1 -19z m447
2 c50 -11 101 -20 114 -20 25 0 25 -5 6 -67 -3 -10 1 -7 10 7 8 14 15 33 16
43 0 19 17 22 54 7 l25 -9 -20 -73 c-11 -40 -26 -78 -32 -84 -9 -8 -65 0 -210
31 -185 39 -303 78 -292 96 6 8 48 -1 55 -12 3 -5 33 -10 65 -13 l60 -5 -47
11 c-53 12 -60 24 -25 38 12 5 38 23 57 39 41 36 48 36 164 11z m389 -37 c64
-26 35 -24 -46 3 -42 14 -75 30 -71 35 3 5 22 2 42 -7 20 -9 54 -23 75 -31z
m-1123 1 c0 -8 -5 -12 -10 -9 -6 4 -8 11 -5 16 9 14 15 11 15 -7z m1230 1 c7
-8 8 -15 2 -15 -5 0 -15 7 -22 15 -7 8 -8 15 -2 15 5 0 15 -7 22 -15z m70 -25
c13 -9 13 -10 0 -10 -8 0 -22 5 -30 10 -13 9 -13 10 0 10 8 0 22 -5 30 -10z
m-848 -57 c9 -5 -83 -121 -97 -122 -14 -1 -75 61 -75 76 0 19 8 16 50 -17 50
-40 65 -39 17 1 -43 36 -40 56 5 33 27 -14 32 -14 45 -1 14 14 12 15 -17 14
-38 -2 -53 19 -18 26 23 4 76 -1 90 -10z m928 -3 c0 -5 -4 -10 -10 -10 -5 0
-10 5 -10 10 0 6 5 10 10 10 6 0 10 -4 10 -10z m-1160 -65 c0 -4 -67 -35 -76
-35 -15 0 1 18 24 27 30 12 52 16 52 8z m-125 -55 c3 -5 1 -10 -4 -10 -6 0
-11 5 -11 10 0 6 2 10 4 10 3 0 8 -4 11 -10z m47 -5 c0 -5 -5 -11 -11 -13 -6
-2 -11 4 -11 13 0 9 5 15 11 13 6 -2 11 -8 11 -13z m139 -6 c16 -30 -5 -51
-25 -24 -14 19 -11 45 5 45 4 0 13 -9 20 -21z m-37 -25 c8 -22 8 -24 -8 -24
-15 0 -28 24 -19 34 11 10 21 7 27 -10z m-180 -11 c-4 -10 -10 -48 -13 -85 -3
-36 -9 -69 -12 -73 -8 -7 -61 5 -57 14 2 3 16 41 33 84 17 44 35 77 43 77 10
0 12 -6 6 -17z m134 -6 c2 -12 -3 -17 -17 -17 -15 0 -21 6 -21 21 0 25 33 22
38 -4z m-258 1 c0 -14 -40 -58 -52 -58 -16 0 -8 29 14 50 25 23 38 26 38 8z
m159 -10 c-1 -13 -1 -48 0 -78 2 -77 21 -44 21 38 0 59 13 82 24 45 26 -86 43
-162 38 -167 -7 -8 -52 -8 -91 0 -31 6 -31 7 -31 70 0 66 13 114 30 114 6 0
10 -10 9 -22z m131 -86 c19 -64 18 -72 -10 -72 -13 0 -21 14 -29 48 -7 26 -14
55 -17 64 -3 10 2 18 13 20 24 6 22 9 43 -60z m-195 -82 c3 -5 0 -48 -6 -96
l-12 -86 -54 4 c-29 3 -55 7 -58 9 -2 3 12 44 32 92 33 80 38 87 64 87 15 0
31 -4 34 -10z m-206 -1205 c66 -33 109 -121 92 -183 -24 -82 -116 -151 -186
-138 -46 9 -129 85 -140 129 -31 123 124 250 234 192z m-2822 -175 c-8 -103
-25 -146 -85 -203 l-39 -38 -52 47 c-70 63 -83 92 -89 196 l-5 88 138 0 138 0
-6 -90z m2413 -175 c35 -18 66 -54 85 -97 19 -46 19 -81 1 -117 -20 -37 -89
-99 -121 -107 -65 -16 -177 67 -191 141 -14 74 52 171 131 194 32 10 55 6 95
-14z m778 10 c102 -43 152 -161 102 -243 -25 -41 -105 -92 -144 -92 -59 0
-135 64 -166 141 -24 57 57 175 137 199 15 4 29 9 31 9 1 1 19 -6 40 -14z
m-3513 -24 c43 -19 125 -101 125 -125 0 -20 -85 -95 -133 -117 -29 -13 -65
-19 -114 -19 l-73 0 0 48 c0 27 -3 90 -6 140 l-7 92 84 0 c60 0 96 -6 124 -19z
m591 -58 c-3 -42 -6 -103 -6 -135 l0 -60 -105 4 -104 3 -51 50 c-71 70 -72 77
-9 141 63 64 85 72 198 73 l84 1 -7 -77z m709 -78 c3 -35 4 -69 0 -75 -4 -6
-56 -10 -131 -10 l-124 0 0 75 0 75 124 0 124 0 7 -65z m774 41 c132 -38 132
-47 1 -89 -135 -44 -120 -49 -120 37 0 90 -4 88 119 52z m-1828 -143 c58 -53
71 -85 77 -190 l5 -91 -44 -7 c-24 -3 -84 -5 -134 -3 l-90 3 -3 70 c-2 39 0
85 3 102 6 36 107 153 131 153 8 0 32 -17 55 -37z m2882 -99 c71 -36 107 -88
107 -154 0 -47 -11 -73 -49 -113 -76 -83 -176 -75 -247 19 -24 31 -29 47 -29
94 0 47 5 63 28 93 52 69 127 93 190 61z m-2096 -315 c84 -40 146 -110 173
-196 24 -79 25 -105 3 -169 -34 -102 -100 -183 -178 -220 -71 -34 -189 -34
-262 0 -149 70 -225 244 -174 399 25 75 74 136 139 174 101 59 191 63 299 12z
m1445 4 c61 -27 131 -93 164 -154 28 -51 27 -217 -2 -280 -31 -67 -78 -114
-146 -149 -154 -76 -358 -8 -433 145 -28 57 -29 233 -1 287 39 80 139 155 233
177 54 12 119 3 185 -26z"/>
<path d="M11282 16270 c-6 -11 -12 -30 -12 -42 1 -19 3 -17 16 11 17 40 15 61
-4 31z"/>
<path d="M11098 16183 c12 -2 30 -2 40 0 9 3 -1 5 -23 4 -22 0 -30 -2 -17 -4z"/>
<path d="M11401 16126 c14 -12 99 -57 99 -52 0 6 -84 56 -95 56 -5 0 -6 -2 -4
-4z"/>
<path d="M10937 15683 c21 -39 41 -69 46 -66 8 5 -23 60 -61 109 -14 18 -8 1
15 -43z"/>
<path d="M10887 15601 c6 -25 19 -35 27 -22 3 4 -3 16 -14 26 -18 16 -18 16
-13 -4z"/>
<path d="M10150 15570 c8 -5 20 -10 25 -10 6 0 3 5 -5 10 -8 5 -19 10 -25 10
-5 0 -3 -5 5 -10z"/>
<path d="M10200 15556 c0 -3 9 -10 20 -16 11 -6 20 -8 20 -6 0 3 -9 10 -20 16
-11 6 -20 8 -20 6z"/>
<path d="M10088 15183 c7 -3 16 -2 19 1 4 3 -2 6 -13 5 -11 0 -14 -3 -6 -6z"/>
<path d="M10410 15103 c0 -7 9 -35 20 -63 11 -28 20 -52 20 -54 0 -2 -22 -23
-49 -45 l-49 -42 -99 -2 c-60 -1 -106 -7 -118 -15 l-20 -14 20 7 c37 13 195
19 195 7 0 -6 -28 -36 -62 -67 -35 -32 -48 -47 -29 -35 19 13 61 49 95 80 34
30 76 68 93 82 l33 27 60 -57 c33 -32 60 -65 60 -74 0 -9 5 -20 11 -23 6 -4 9
-20 7 -37 -2 -17 0 -30 5 -29 20 2 70 50 93 89 15 25 42 62 61 83 20 22 31 39
26 39 -13 0 -65 -60 -99 -115 -33 -51 -43 -54 -70 -24 -19 21 -19 22 10 43 17
11 46 36 65 54 26 24 19 20 -26 -12 -33 -25 -66 -46 -71 -46 -9 0 -104 103
-110 120 -2 5 5 11 15 14 10 4 29 16 43 27 21 18 17 17 -22 -4 -54 -29 -58
-27 -88 50 -11 26 -19 43 -20 36z"/>
<path d="M11285 14930 c-3 -5 -2 -10 4 -10 5 0 13 5 16 10 3 6 2 10 -4 10 -5
0 -13 -4 -16 -10z"/>
<path d="M9992 14823 c-56 -25 -101 -48 -98 -50 3 -4 205 83 215 92 11 12 -21
0 -117 -42z"/>
<path d="M10179 14743 c-13 -16 -12 -17 4 -4 9 7 17 15 17 17 0 8 -8 3 -21
-13z"/>
<path d="M12837 7585 c-2 -5 -1 -23 2 -40 4 -20 13 -31 31 -35 22 -5 24 -10
21 -49 -3 -41 -1 -43 21 -37 l23 7 -22 -17 c-27 -20 -30 -34 -5 -34 16 -1 16
-1 0 -11 -14 -8 -18 -23 -18 -64 0 -65 9 -68 70 -24 42 30 43 32 24 46 -18 15
-18 15 4 8 15 -4 22 -2 22 7 0 7 -10 18 -22 23 -17 7 -24 20 -26 45 -2 19 -10
41 -19 48 -20 14 -13 15 20 3 20 -8 23 -15 19 -40 -2 -17 0 -31 5 -31 6 0 14
28 19 63 l9 62 109 3 c90 2 111 0 118 -13 5 -8 15 -15 23 -15 35 0 29 -162 -9
-213 -19 -27 -24 -28 -68 -23 -42 6 -48 4 -48 -11 -1 -17 -2 -17 -15 1 -12 15
-22 18 -60 13 -40 -6 -45 -5 -45 13 0 27 -7 25 -70 -13 -50 -29 -55 -36 -58
-71 -2 -24 2 -42 10 -48 10 -8 10 -11 1 -15 -19 -7 -16 -34 5 -49 16 -13 16
-13 0 -14 -15 0 -18 -10 -18 -64 0 -59 -2 -65 -22 -68 -19 -2 -24 -10 -26 -45
l-3 -43 105 0 c58 0 107 4 110 9 3 5 3 23 0 40 -5 22 -14 33 -31 37 -22 6 -24
10 -18 44 6 33 3 40 -22 58 l-28 20 28 -5 c22 -4 27 -2 27 15 0 11 -6 23 -12
25 -10 4 -10 6 0 6 8 1 12 17 12 46 l0 45 85 0 85 0 60 -120 c33 -66 60 -124
60 -130 0 -5 -11 -10 -25 -10 -22 0 -25 -4 -25 -40 l0 -40 105 0 105 0 0 40
c0 33 -3 40 -20 40 -25 0 -36 19 -100 163 l-52 119 23 16 c40 27 79 70 79 86
0 10 -12 16 -37 19 l-38 4 38 1 c35 2 37 4 37 37 0 34 -1 35 -40 35 -40 0 -40
0 -39 38 2 31 3 32 6 9 4 -25 8 -28 36 -25 30 3 32 5 29 38 -2 24 -14 47 -40
73 -47 49 -81 67 -127 67 -28 0 -35 -4 -35 -19 0 -15 10 -20 45 -25 33 -5 45
-12 44 -24 0 -11 -3 -12 -6 -4 -3 8 -29 12 -76 13 -53 0 -66 3 -49 9 28 12 30
50 2 50 -14 0 -20 -7 -21 -22 l0 -23 -11 23 c-9 17 -20 22 -50 22 -26 0 -38
-4 -38 -14 0 -8 5 -18 10 -21 6 -3 10 -11 10 -16 0 -6 -12 4 -26 21 -26 31
-29 31 -100 28 -41 -2 -75 -7 -77 -13z m257 -360 c-4 -8 -8 -15 -10 -15 -2 0
-4 7 -4 15 0 8 4 15 10 15 5 0 7 -7 4 -15z m113 9 c-3 -3 -12 -4 -19 -1 -8 3
-5 6 6 6 11 1 17 -2 13 -5z m-198 -37 c-2 -2 -20 -14 -39 -26 l-35 -23 28 26
c15 14 33 26 39 26 6 0 9 -1 7 -3z m319 -139 c28 -58 51 -120 40 -108 -10 10
-87 180 -79 176 4 -3 21 -33 39 -68z"/>
<path d="M13092 7388 l3 -43 48 -3 47 -3 0 45 0 46 -51 0 -50 0 3 -42z"/>
<path d="M5226 7560 c-60 -55 -76 -93 -76 -177 0 -59 4 -76 28 -114 16 -24 35
-50 43 -56 10 -8 66 -13 165 -15 l149 -3 8 -54 c10 -60 -4 -183 -23 -207 -9
-10 -37 -14 -111 -14 l-98 0 -27 46 c-22 37 -31 45 -48 40 -12 -3 -38 -6 -59
-6 l-38 0 15 -27 c8 -16 36 -52 62 -81 l47 -53 150 3 150 3 49 55 50 55 -4
122 c-4 119 -5 123 -35 160 l-30 38 -144 3 c-175 3 -179 5 -179 114 0 60 3 72
25 93 20 20 34 25 78 25 30 0 69 3 86 6 27 6 36 2 65 -30 31 -34 37 -37 81
-34 27 2 50 8 52 14 2 7 -19 39 -47 73 l-51 61 -145 0 -144 0 -44 -40z"/>
<path d="M5932 7558 c3 -39 6 -43 31 -46 l27 -3 0 -289 0 -288 -30 -7 c-27 -6
-30 -10 -30 -46 l0 -39 279 0 c181 0 282 4 286 10 4 6 3 40 0 75 l-7 65 -49 0
c-48 0 -49 -1 -49 -30 l0 -30 -140 0 -140 0 0 130 0 130 106 0 105 0 -3 38 -3
37 -102 -3 -103 -4 0 126 0 126 140 0 c133 0 140 -1 140 -20 0 -18 7 -20 56
-20 l57 0 -7 46 c-3 26 -6 55 -6 65 0 18 -14 19 -281 19 l-280 0 3 -42z"/>
<path d="M6732 7558 c3 -40 5 -43 36 -46 l32 -3 -2 -292 -3 -292 -32 3 c-33 3
-33 3 -33 -42 l0 -46 285 0 285 0 0 110 0 110 -60 0 -60 0 0 -65 0 -65 -135 0
-135 0 0 295 0 295 40 0 40 0 0 40 0 40 -131 0 -130 0 3 -42z"/>
<path d="M7530 7555 c0 -45 0 -45 35 -45 l35 0 0 -289 0 -290 -32 -3 c-31 -3
-33 -6 -36 -45 l-3 -43 280 0 281 0 0 75 0 75 -50 0 c-49 0 -50 -1 -50 -30 l0
-30 -145 0 -145 0 0 130 0 130 110 0 110 0 0 35 0 34 -107 3 -108 3 -3 123 -3
122 146 0 c138 0 145 -1 145 -20 0 -17 7 -20 50 -20 l50 0 0 65 0 65 -280 0
-280 0 0 -45z"/>
<path d="M8391 7544 l-51 -56 0 -263 0 -264 50 -60 51 -61 132 0 c132 0 133 0
173 30 57 41 94 98 94 142 0 45 -10 52 -64 44 -40 -6 -44 -10 -49 -41 -3 -18
-13 -45 -22 -59 -17 -25 -21 -26 -115 -26 -146 0 -140 -12 -140 296 l0 243 24
19 c30 23 175 39 206 22 23 -12 50 -60 50 -90 0 -18 6 -20 54 -20 30 0 57 4
60 9 13 21 -22 94 -68 141 l-49 50 -143 0 -142 0 -51 -56z"/>
<path d="M9060 7514 l0 -85 43 3 42 3 -3 38 -4 37 101 0 101 0 -2 -292 -3
-293 -27 -3 c-25 -3 -28 -7 -28 -43 l0 -40 113 3 112 3 0 35 c0 31 -3 35 -30
40 l-30 5 -3 293 -2 292 100 0 100 0 0 -40 c0 -38 2 -40 30 -40 l30 0 0 85 0
85 -320 0 -320 0 0 -86z"/>
<path d="M10400 7565 c0 -23 6 -37 19 -44 24 -14 67 -83 153 -248 l68 -132 0
-110 0 -110 -27 -3 c-25 -3 -28 -7 -28 -38 l0 -35 115 0 115 0 0 35 c0 31 -3
35 -30 40 l-30 5 -3 98 c-3 109 -8 95 103 297 82 150 106 187 132 199 18 8 23
19 23 46 l0 35 -100 0 -100 0 0 -40 c0 -28 4 -40 14 -40 8 0 17 -4 20 -9 5 -8
-130 -281 -139 -281 -6 0 -155 268 -155 279 0 6 9 11 20 11 17 0 20 7 20 40
l0 40 -95 0 -95 0 0 -35z"/>
<path d="M11312 7560 c-86 -67 -82 -51 -82 -342 l0 -258 43 -48 c68 -76 57
-72 215 -70 l143 3 50 53 49 52 0 269 0 269 -51 56 -51 56 -133 0 -133 0 -50
-40z m262 -50 c6 0 19 -13 29 -29 15 -25 17 -60 17 -255 0 -175 -3 -235 -14
-261 l-15 -35 -105 0 c-98 0 -107 2 -120 23 -12 17 -16 72 -18 270 l-2 247 24
18 c23 16 144 33 178 25 8 -2 19 -3 26 -3z"/>
<path d="M11430 7221 c0 -116 3 -212 8 -214 4 -2 28 -2 55 1 l47 4 0 209 0
209 -55 0 -55 0 0 -209z"/>
<path d="M11972 7558 c3 -39 6 -43 31 -46 l27 -3 0 -280 0 -280 51 -55 52 -54
134 0 c150 0 165 5 225 67 l38 39 2 284 3 285 33 -3 c32 -3 32 -3 32 42 l0 46
-110 0 -110 0 0 -39 c0 -31 4 -40 20 -44 21 -5 21 -11 18 -275 -4 -331 5 -312
-138 -312 -82 0 -99 3 -114 19 -15 16 -18 53 -22 291 -5 268 -5 272 15 277 17
4 21 13 21 44 l0 39 -106 0 -105 0 3 -42z"/>
<path d="M7185 6069 c-9 -17 -48 -157 -86 -312 -39 -154 -74 -288 -79 -296
-11 -20 -6 -36 -78 244 -84 324 -80 295 -43 295 30 0 31 1 31 45 l0 45 -116 0
-115 0 3 -42 c3 -40 5 -43 35 -46 36 -4 34 1 118 -345 26 -106 56 -222 67
-259 l19 -68 65 0 c60 0 65 2 74 26 9 22 76 286 112 438 5 21 13 35 18 30 4
-5 31 -103 60 -219 28 -115 56 -225 62 -243 l10 -33 66 3 67 3 85 330 85 330
38 3 c37 3 37 4 37 48 l0 44 -115 0 -115 0 0 -35 c0 -19 -1 -38 -2 -42 -2 -5
9 -9 25 -11 15 -2 27 -7 27 -12 0 -11 -109 -469 -127 -534 -8 -29 -19 -7 -41
84 -129 523 -140 560 -161 560 -6 0 -18 -14 -26 -31z"/>
<path d="M7955 6080 c-3 -5 -3 -25 1 -45 5 -30 10 -35 35 -35 l29 0 0 -290 0
-290 -30 0 c-29 0 -30 -2 -30 -45 l0 -45 278 2 277 3 3 73 3 72 -50 0 c-47 0
-50 -2 -53 -27 l-3 -28 -142 -3 -143 -3 0 135 0 135 108 3 107 3 0 30 0 30
-107 3 -108 3 0 119 0 120 145 0 c138 0 145 -1 145 -20 0 -17 7 -20 50 -20
l50 0 0 65 0 65 -279 0 c-173 0 -282 -4 -286 -10z"/>
<path d="M9013 6073 c-3 -10 -53 -160 -112 -333 -94 -281 -108 -315 -128 -318
-20 -3 -23 -9 -23 -48 l0 -45 98 3 97 3 0 40 c0 38 -2 40 -32 43 -18 2 -33 7
-33 11 0 4 13 43 28 87 l29 79 143 0 143 0 23 -67 c40 -119 40 -108 -1 -108
l-36 0 3 -42 3 -43 85 -3 c121 -4 132 0 128 46 -3 32 -7 37 -30 40 -29 4 -37
18 -66 127 -11 39 -52 171 -92 295 -39 124 -74 231 -76 238 -2 8 -26 12 -75
12 -59 0 -72 -3 -76 -17z m138 -246 c28 -87 49 -160 47 -161 -1 -1 -55 0 -119
2 l-117 4 53 159 c29 87 56 163 60 170 12 18 21 -4 76 -174z"/>
<path d="M9066 5785 c-12 -33 -7 -55 15 -55 17 0 20 5 17 32 -3 35 -22 48 -32
23z"/>
<path d="M9654 6076 c-3 -8 -4 -27 -2 -43 2 -24 8 -28 36 -31 l32 -3 0 -290 0
-289 -30 0 c-29 0 -30 -2 -30 -45 l0 -46 118 3 117 3 3 43 3 42 -35 0 -36 0 0
105 0 105 139 0 138 0 52 54 51 55 0 121 0 121 -51 55 -52 54 -224 0 c-184 0
-225 -3 -229 -14z m441 -106 c20 -38 20 -168 1 -215 l-15 -35 -125 0 -126 0 0
140 0 140 125 0 124 0 16 -30z"/>
<path d="M9912 5863 l3 -68 49 -3 c27 -2 53 1 58 6 5 5 6 36 2 71 l-7 61 -54
0 -54 0 3 -67z"/>
<path d="M10529 6033 l-59 -58 0 -105 c-1 -58 -1 -176 -1 -263 l1 -158 59 -60
59 -61 135 4 136 3 56 55 55 54 0 269 0 268 -51 55 -52 54 -139 0 -140 0 -59
-57z m318 -60 c5 -16 8 -134 8 -263 0 -299 4 -290 -125 -290 -80 0 -92 3 -117
24 l-28 24 -4 231 c-2 127 0 242 3 255 8 34 45 44 158 45 l98 1 7 -27z"/>
<path d="M10670 5721 c0 -116 4 -212 9 -215 5 -3 30 -3 55 0 l46 7 0 208 0
209 -55 0 -55 0 0 -209z"/>
<path d="M11313 6092 l-93 -3 0 -39 c0 -38 2 -40 30 -40 l30 0 0 -295 0 -295
-30 0 c-29 0 -30 -2 -30 -45 l0 -45 104 0 c58 0 107 3 109 8 2 4 2 24 0 45 -5
33 -8 37 -34 37 l-29 0 0 123 c0 67 -3 193 -7 280 -3 92 -2 157 3 157 9 -1 47
-64 248 -425 l123 -220 54 0 54 0 3 338 2 337 30 0 c28 0 30 2 30 40 l0 40
-105 0 -105 0 0 -40 c0 -38 2 -40 30 -40 l30 0 0 -252 c0 -289 4 -282 -82
-123 -138 254 -253 455 -263 457 -5 2 -52 2 -102 0z"/>
</g>
</svg>
